<svg id="svg" version="1.1" xmlns="http://www.w3.org/2000/svg" xmlns:xlink="http://www.w3.org/1999/xlink" width="400" height="400" viewBox="0, 0, 400,400"><g id="svgg"><path id="path0" d="M196.237 8.740 C 196.121 8.927,194.626 9.199,192.913 9.343 C 191.201 9.488,189.740 9.785,189.667 10.003 C 189.593 10.221,189.098 10.400,188.567 10.400 C 188.035 10.400,187.600 10.557,187.600 10.749 C 187.600 10.941,186.880 11.213,186.000 11.354 C 185.120 11.494,184.400 11.787,184.400 12.005 C 184.400 12.222,184.130 12.400,183.800 12.400 C 183.470 12.400,183.200 12.560,183.200 12.757 C 183.200 12.953,182.750 13.226,182.200 13.364 C 181.650 13.502,181.200 13.792,181.200 14.008 C 181.200 14.223,180.930 14.400,180.600 14.400 C 180.270 14.400,179.677 14.715,179.283 15.100 C 178.888 15.485,178.056 16.160,177.434 16.600 C 176.811 17.040,176.099 17.634,175.851 17.919 C 175.603 18.205,175.166 18.655,174.881 18.919 C 174.595 19.184,174.145 19.634,173.881 19.919 C 173.616 20.205,173.169 20.655,172.886 20.919 C 171.740 21.992,171.357 22.400,170.400 23.569 C 169.850 24.241,169.017 25.213,168.548 25.729 C 168.079 26.245,167.572 27.058,167.421 27.534 C 167.270 28.010,166.978 28.400,166.773 28.400 C 166.568 28.400,166.400 28.670,166.400 29.000 C 166.400 29.330,166.223 29.600,166.008 29.600 C 165.792 29.600,165.502 30.050,165.364 30.600 C 165.226 31.150,164.953 31.600,164.757 31.600 C 164.560 31.600,164.400 31.960,164.400 32.400 C 164.400 32.840,164.234 33.200,164.032 33.200 C 163.829 33.200,163.545 33.740,163.400 34.400 C 163.255 35.060,162.971 35.600,162.768 35.600 C 162.566 35.600,162.400 35.960,162.400 36.400 C 162.400 36.840,162.234 37.200,162.032 37.200 C 161.829 37.200,161.545 37.740,161.400 38.400 C 161.255 39.060,160.971 39.600,160.768 39.600 C 160.566 39.600,160.400 39.960,160.400 40.400 C 160.400 40.840,160.234 41.200,160.032 41.200 C 159.829 41.200,159.545 41.740,159.400 42.400 C 159.255 43.060,158.971 43.600,158.768 43.600 C 158.566 43.600,158.400 43.960,158.400 44.400 C 158.400 44.840,158.234 45.200,158.032 45.200 C 157.829 45.200,157.545 45.740,157.400 46.400 C 157.255 47.060,156.971 47.600,156.768 47.600 C 156.566 47.600,156.400 47.960,156.400 48.400 C 156.400 48.840,156.234 49.200,156.032 49.200 C 155.829 49.200,155.545 49.740,155.400 50.400 C 155.255 51.060,154.971 51.600,154.768 51.600 C 154.566 51.600,154.400 51.960,154.400 52.400 C 154.400 52.840,154.234 53.200,154.032 53.200 C 153.829 53.200,153.545 53.740,153.400 54.400 C 153.255 55.060,152.971 55.600,152.768 55.600 C 152.566 55.600,152.400 55.960,152.400 56.400 C 152.400 56.840,152.234 57.200,152.032 57.200 C 151.829 57.200,151.545 57.740,151.400 58.400 C 151.255 59.060,150.971 59.600,150.768 59.600 C 150.566 59.600,150.400 59.960,150.400 60.400 C 150.400 60.840,150.234 61.200,150.032 61.200 C 149.829 61.200,149.545 61.740,149.400 62.400 C 149.255 63.060,148.971 63.600,148.768 63.600 C 148.566 63.600,148.400 63.960,148.400 64.400 C 148.400 64.840,148.234 65.200,148.032 65.200 C 147.829 65.200,147.545 65.740,147.400 66.400 C 147.255 67.060,146.971 67.600,146.768 67.600 C 146.566 67.600,146.400 67.960,146.400 68.400 C 146.400 68.840,146.234 69.200,146.032 69.200 C 145.829 69.200,145.545 69.740,145.400 70.400 C 145.255 71.060,144.971 71.600,144.768 71.600 C 144.566 71.600,144.400 71.960,144.400 72.400 C 144.400 72.840,144.234 73.200,144.032 73.200 C 143.829 73.200,143.545 73.740,143.400 74.400 C 143.255 75.060,142.971 75.600,142.768 75.600 C 142.566 75.600,142.400 75.960,142.400 76.400 C 142.400 76.840,142.234 77.200,142.032 77.200 C 141.829 77.200,141.545 77.740,141.400 78.400 C 141.255 79.060,140.971 79.600,140.768 79.600 C 140.566 79.600,140.400 79.960,140.400 80.400 C 140.400 80.840,140.234 81.200,140.032 81.200 C 139.829 81.200,139.545 81.740,139.400 82.400 C 139.255 83.060,138.971 83.600,138.768 83.600 C 138.566 83.600,138.400 83.960,138.400 84.400 C 138.400 84.840,138.234 85.200,138.032 85.200 C 137.829 85.200,137.545 85.740,137.400 86.400 C 137.255 87.060,136.971 87.600,136.768 87.600 C 136.566 87.600,136.400 87.960,136.400 88.400 C 136.400 88.840,136.234 89.200,136.032 89.200 C 135.829 89.200,135.545 89.740,135.400 90.400 C 135.255 91.060,134.971 91.600,134.768 91.600 C 134.566 91.600,134.400 91.960,134.400 92.400 C 134.400 92.840,134.234 93.200,134.032 93.200 C 133.829 93.200,133.545 93.740,133.400 94.400 C 133.255 95.060,132.971 95.600,132.768 95.600 C 132.566 95.600,132.400 95.960,132.400 96.400 C 132.400 96.840,132.234 97.200,132.032 97.200 C 131.829 97.200,131.545 97.740,131.400 98.400 C 131.255 99.060,130.971 99.600,130.768 99.600 C 130.566 99.600,130.400 99.960,130.400 100.400 C 130.400 100.840,130.234 101.200,130.032 101.200 C 129.829 101.200,129.545 101.740,129.400 102.400 C 129.255 103.060,128.971 103.600,128.768 103.600 C 128.566 103.600,128.400 103.960,128.400 104.400 C 128.400 104.840,128.234 105.200,128.032 105.200 C 127.829 105.200,127.545 105.740,127.400 106.400 C 127.255 107.060,126.971 107.600,126.768 107.600 C 126.566 107.600,126.400 107.960,126.400 108.400 C 126.400 108.840,126.240 109.200,126.043 109.200 C 125.847 109.200,125.568 109.672,125.424 110.248 C 125.068 111.667,124.259 112.400,123.052 112.400 C 122.499 112.400,121.948 112.560,121.827 112.757 C 121.706 112.953,119.804 113.242,117.600 113.400 C 115.396 113.558,113.494 113.847,113.373 114.043 C 113.252 114.240,112.263 114.400,111.176 114.400 C 110.089 114.400,109.200 114.560,109.200 114.756 C 109.200 114.952,107.220 115.242,104.800 115.400 C 102.380 115.558,100.400 115.848,100.400 116.044 C 100.400 116.240,99.511 116.400,98.424 116.400 C 97.337 116.400,96.349 116.558,96.230 116.752 C 96.110 116.945,94.120 117.233,91.806 117.390 C 89.493 117.548,87.600 117.840,87.600 118.038 C 87.600 118.237,86.610 118.400,85.400 118.400 C 84.190 118.400,83.200 118.561,83.200 118.757 C 83.200 118.953,81.399 119.243,79.197 119.400 C 76.995 119.558,75.094 119.847,74.973 120.043 C 74.852 120.240,73.773 120.400,72.576 120.400 C 71.379 120.400,70.400 120.563,70.400 120.762 C 70.400 120.960,68.507 121.252,66.194 121.410 C 63.880 121.567,61.890 121.855,61.770 122.048 C 61.651 122.242,60.663 122.400,59.576 122.400 C 58.489 122.400,57.600 122.558,57.600 122.752 C 57.600 122.946,55.710 123.233,53.400 123.391 C 51.090 123.548,49.200 123.840,49.200 124.038 C 49.200 124.237,48.311 124.400,47.224 124.400 C 46.137 124.400,45.149 124.558,45.030 124.752 C 44.910 124.945,42.920 125.233,40.606 125.390 C 38.293 125.548,36.400 125.840,36.400 126.038 C 36.400 126.237,35.680 126.400,34.800 126.400 C 33.920 126.400,33.200 126.559,33.200 126.753 C 33.200 126.948,32.032 127.232,30.604 127.385 C 29.177 127.538,27.906 127.829,27.781 128.031 C 27.655 128.234,27.203 128.400,26.776 128.400 C 26.349 128.400,25.998 128.535,25.997 128.700 C 25.995 128.865,24.915 129.336,23.597 129.747 C 22.278 130.158,21.200 130.631,21.200 130.797 C 21.200 130.964,20.705 131.200,20.100 131.323 C 19.495 131.445,18.626 131.895,18.169 132.324 C 17.712 132.752,16.947 133.226,16.469 133.378 C 15.991 133.530,15.600 133.822,15.600 134.027 C 15.600 134.232,15.396 134.400,15.146 134.400 C 14.896 134.400,14.275 134.850,13.765 135.400 C 13.255 135.950,12.673 136.400,12.472 136.400 C 12.003 136.400,7.600 140.754,7.600 141.216 C 7.600 141.407,7.172 141.992,6.648 142.516 C 6.124 143.039,5.572 143.858,5.421 144.334 C 5.270 144.810,4.978 145.200,4.773 145.200 C 4.568 145.200,4.400 145.470,4.400 145.800 C 4.400 146.130,4.234 146.400,4.032 146.400 C 3.829 146.400,3.537 146.985,3.382 147.700 C 3.226 148.415,2.975 149.090,2.822 149.200 C 2.300 149.576,1.200 152.815,1.200 153.975 C 1.200 154.612,0.975 155.208,0.700 155.300 C 0.015 155.529,-0.020 171.610,0.663 172.439 C 0.917 172.747,1.252 173.855,1.408 174.900 C 1.564 175.945,1.850 176.800,2.045 176.800 C 2.240 176.800,2.400 177.250,2.400 177.800 C 2.400 178.350,2.560 178.800,2.755 178.800 C 2.951 178.800,3.229 179.430,3.374 180.200 C 3.518 180.970,3.808 181.600,4.018 181.600 C 4.228 181.600,4.400 181.870,4.400 182.200 C 4.400 182.530,4.580 182.800,4.800 182.800 C 5.020 182.800,5.200 183.166,5.200 183.613 C 5.200 184.059,5.470 184.529,5.800 184.655 C 6.130 184.782,6.400 185.226,6.400 185.643 C 6.400 186.059,6.577 186.400,6.792 186.400 C 7.008 186.400,7.296 186.844,7.432 187.386 C 7.568 187.928,8.022 188.480,8.440 188.613 C 8.858 188.745,9.200 189.137,9.200 189.484 C 9.200 190.095,31.578 212.577,36.191 216.600 C 37.452 217.700,38.690 218.819,38.942 219.086 C 39.194 219.353,39.616 219.803,39.881 220.086 C 40.145 220.369,40.595 220.816,40.881 221.081 C 41.166 221.345,41.616 221.795,41.881 222.081 C 42.145 222.366,42.595 222.816,42.881 223.081 C 43.166 223.345,43.616 223.795,43.881 224.081 C 44.145 224.366,44.595 224.816,44.881 225.081 C 45.166 225.345,45.616 225.795,45.881 226.081 C 46.145 226.366,46.595 226.816,46.881 227.081 C 47.166 227.345,47.616 227.795,47.881 228.081 C 48.145 228.366,48.595 228.816,48.881 229.081 C 49.166 229.345,49.607 229.795,49.861 230.081 C 50.114 230.366,51.816 231.950,53.641 233.600 C 55.467 235.250,60.312 239.930,64.407 244.000 C 68.503 248.070,73.129 252.528,74.688 253.907 L 77.523 256.414 77.303 258.907 C 77.182 260.278,76.929 261.460,76.741 261.533 C 76.554 261.607,76.400 262.541,76.400 263.610 C 76.400 264.678,76.237 265.654,76.037 265.777 C 75.838 265.900,75.546 267.711,75.390 269.801 C 75.233 271.890,74.946 273.600,74.752 273.600 C 74.559 273.600,74.400 274.500,74.400 275.600 C 74.400 276.700,74.239 277.600,74.043 277.600 C 73.847 277.600,73.557 279.400,73.400 281.600 C 73.243 283.800,72.953 285.600,72.757 285.600 C 72.561 285.600,72.400 286.500,72.400 287.600 C 72.400 288.700,72.241 289.600,72.048 289.600 C 71.854 289.600,71.567 291.310,71.410 293.399 C 71.254 295.489,70.962 297.300,70.763 297.423 C 70.563 297.546,70.400 298.537,70.400 299.624 C 70.400 300.711,70.241 301.600,70.048 301.600 C 69.854 301.600,69.567 303.310,69.410 305.399 C 69.254 307.489,68.962 309.300,68.763 309.423 C 68.563 309.546,68.400 310.436,68.400 311.400 C 68.400 312.364,68.237 313.254,68.037 313.377 C 67.838 313.500,67.546 315.311,67.390 317.401 C 67.233 319.490,66.946 321.200,66.752 321.200 C 66.559 321.200,66.400 322.100,66.400 323.200 C 66.400 324.300,66.239 325.200,66.043 325.200 C 65.847 325.200,65.557 327.000,65.400 329.200 C 65.243 331.400,64.953 333.200,64.757 333.200 C 64.561 333.200,64.400 334.100,64.400 335.200 C 64.400 336.300,64.239 337.200,64.043 337.200 C 63.847 337.200,63.557 339.000,63.400 341.200 C 63.243 343.400,62.953 345.200,62.757 345.200 C 62.559 345.200,62.400 349.109,62.400 354.000 C 62.400 358.937,62.558 362.800,62.759 362.800 C 62.957 362.800,63.245 364.060,63.400 365.600 C 63.555 367.140,63.843 368.400,64.041 368.400 C 64.238 368.400,64.400 368.850,64.400 369.400 C 64.400 369.950,64.557 370.400,64.749 370.400 C 64.941 370.400,65.213 371.120,65.354 372.000 C 65.494 372.880,65.787 373.600,66.005 373.600 C 66.222 373.600,66.400 373.870,66.400 374.200 C 66.400 374.530,66.580 374.800,66.800 374.800 C 67.020 374.800,67.200 375.166,67.200 375.613 C 67.200 376.059,67.470 376.529,67.800 376.655 C 68.130 376.782,68.400 377.207,68.400 377.600 C 68.400 377.993,68.670 378.418,69.000 378.545 C 69.330 378.671,69.600 379.018,69.600 379.315 C 69.600 379.613,70.050 380.247,70.600 380.725 C 71.150 381.203,71.600 381.764,71.600 381.970 C 71.600 382.177,71.951 382.457,72.380 382.594 C 72.808 382.730,73.267 383.183,73.400 383.600 C 73.533 384.017,73.983 384.467,74.400 384.600 C 74.817 384.733,75.267 385.183,75.400 385.600 C 75.533 386.017,76.037 386.484,76.520 386.637 C 77.004 386.789,77.681 387.237,78.024 387.630 C 78.367 388.024,79.171 388.478,79.810 388.638 C 80.450 388.799,81.326 389.259,81.757 389.660 C 82.188 390.062,83.139 390.502,83.870 390.640 C 84.602 390.777,85.200 391.049,85.200 391.245 C 85.200 391.440,85.650 391.600,86.200 391.600 C 86.750 391.600,87.200 391.766,87.200 391.968 C 87.200 392.171,88.415 392.449,89.900 392.587 C 91.385 392.725,92.913 393.009,93.295 393.219 C 94.199 393.715,103.002 393.715,103.905 393.218 C 104.287 393.009,105.995 392.723,107.700 392.584 C 109.405 392.445,110.800 392.167,110.800 391.966 C 110.800 391.765,111.250 391.600,111.800 391.600 C 112.350 391.600,112.800 391.437,112.800 391.238 C 112.800 391.038,113.700 390.751,114.800 390.600 C 115.900 390.449,116.800 390.162,116.800 389.962 C 116.800 389.763,117.160 389.600,117.600 389.600 C 118.040 389.600,118.400 389.434,118.400 389.232 C 118.400 389.029,118.940 388.745,119.600 388.600 C 120.260 388.455,120.800 388.171,120.800 387.968 C 120.800 387.766,121.160 387.600,121.600 387.600 C 122.040 387.600,122.400 387.434,122.400 387.232 C 122.400 387.029,122.940 386.745,123.600 386.600 C 124.260 386.455,124.800 386.171,124.800 385.968 C 124.800 385.766,125.160 385.600,125.600 385.600 C 126.040 385.600,126.400 385.434,126.400 385.232 C 126.400 385.029,126.940 384.745,127.600 384.600 C 128.260 384.455,128.800 384.211,128.800 384.058 C 128.800 383.905,129.608 383.424,130.596 382.990 C 131.584 382.555,132.394 382.065,132.396 381.900 C 132.398 381.735,132.670 381.600,133.000 381.600 C 133.330 381.600,133.600 381.428,133.600 381.218 C 133.600 381.008,134.230 380.718,135.000 380.574 C 135.770 380.429,136.400 380.151,136.400 379.955 C 136.400 379.760,136.670 379.600,137.000 379.600 C 137.330 379.600,137.600 379.434,137.600 379.232 C 137.600 379.029,138.121 378.749,138.759 378.609 C 139.396 378.469,140.224 378.015,140.600 377.600 C 140.976 377.185,141.804 376.731,142.441 376.591 C 143.079 376.451,143.600 376.171,143.600 375.968 C 143.600 375.766,143.870 375.600,144.200 375.600 C 144.530 375.600,144.800 375.440,144.800 375.245 C 144.800 375.049,145.430 374.771,146.200 374.626 C 146.970 374.482,147.600 374.192,147.600 373.982 C 147.600 373.772,147.870 373.600,148.200 373.600 C 148.530 373.600,148.802 373.465,148.804 373.300 C 148.806 373.135,149.616 372.645,150.604 372.210 C 151.592 371.776,152.400 371.295,152.400 371.142 C 152.400 370.989,152.940 370.745,153.600 370.600 C 154.260 370.455,154.800 370.171,154.800 369.968 C 154.800 369.766,155.160 369.600,155.600 369.600 C 156.040 369.600,156.400 369.434,156.400 369.232 C 156.400 369.029,156.940 368.745,157.600 368.600 C 158.260 368.455,158.800 368.211,158.800 368.058 C 158.800 367.905,159.608 367.424,160.596 366.990 C 161.584 366.555,162.394 366.065,162.396 365.900 C 162.398 365.735,162.670 365.600,163.000 365.600 C 163.330 365.600,163.600 365.428,163.600 365.218 C 163.600 365.008,164.230 364.718,165.000 364.574 C 165.770 364.429,166.400 364.151,166.400 363.955 C 166.400 363.760,166.670 363.600,167.000 363.600 C 167.330 363.600,167.600 363.440,167.600 363.243 C 167.600 363.047,168.073 362.768,168.651 362.623 C 169.230 362.478,170.352 361.918,171.144 361.379 C 171.937 360.841,172.814 360.400,173.093 360.400 C 173.372 360.400,173.600 360.220,173.600 360.000 C 173.600 359.780,173.870 359.600,174.200 359.600 C 174.530 359.600,174.800 359.440,174.800 359.245 C 174.800 359.049,175.430 358.771,176.200 358.626 C 176.970 358.482,177.600 358.192,177.600 357.982 C 177.600 357.772,177.870 357.600,178.200 357.600 C 178.530 357.600,178.800 357.420,178.800 357.200 C 178.800 356.980,179.067 356.800,179.394 356.800 C 179.721 356.800,180.866 356.260,181.938 355.600 C 183.011 354.940,184.094 354.400,184.344 354.400 C 184.595 354.400,184.800 354.220,184.800 354.000 C 184.800 353.780,185.160 353.600,185.600 353.600 C 186.040 353.600,186.400 353.434,186.400 353.232 C 186.400 353.029,186.940 352.745,187.600 352.600 C 188.260 352.455,188.800 352.211,188.800 352.058 C 188.800 351.905,189.608 351.424,190.596 350.990 C 191.584 350.555,192.394 350.065,192.396 349.900 C 192.398 349.735,192.670 349.600,193.000 349.600 C 193.330 349.600,193.600 349.428,193.600 349.218 C 193.600 349.008,194.230 348.718,195.000 348.574 C 195.770 348.429,196.400 348.151,196.400 347.955 C 196.400 347.760,196.670 347.600,197.000 347.600 C 197.330 347.600,197.600 347.446,197.600 347.258 C 197.600 346.588,200.160 346.157,201.700 346.566 C 202.525 346.786,203.200 347.108,203.200 347.283 C 203.200 347.457,203.470 347.600,203.800 347.600 C 204.130 347.600,204.400 347.760,204.400 347.957 C 204.400 348.153,204.873 348.432,205.451 348.577 C 206.030 348.722,207.152 349.282,207.944 349.821 C 208.737 350.359,209.614 350.800,209.893 350.800 C 210.172 350.800,210.400 350.980,210.400 351.200 C 210.400 351.420,210.670 351.600,211.000 351.600 C 211.330 351.600,211.600 351.760,211.600 351.955 C 211.600 352.151,212.230 352.429,213.000 352.574 C 213.770 352.718,214.400 353.008,214.400 353.218 C 214.400 353.428,214.670 353.600,215.000 353.600 C 215.330 353.600,215.600 353.780,215.600 354.000 C 215.600 354.220,215.947 354.400,216.371 354.400 C 216.796 354.400,217.413 354.670,217.743 355.000 C 218.073 355.330,218.536 355.600,218.771 355.600 C 219.007 355.600,219.200 355.766,219.200 355.968 C 219.200 356.171,219.740 356.455,220.400 356.600 C 221.060 356.745,221.600 357.029,221.600 357.232 C 221.600 357.434,221.960 357.600,222.400 357.600 C 222.840 357.600,223.200 357.766,223.200 357.968 C 223.200 358.171,223.740 358.455,224.400 358.600 C 225.060 358.745,225.600 359.029,225.600 359.232 C 225.600 359.434,225.960 359.600,226.400 359.600 C 226.840 359.600,227.200 359.760,227.200 359.957 C 227.200 360.153,227.650 360.426,228.200 360.564 C 228.750 360.702,229.200 360.992,229.200 361.208 C 229.200 361.423,229.470 361.600,229.800 361.600 C 230.130 361.600,230.400 361.772,230.400 361.982 C 230.400 362.192,231.030 362.482,231.800 362.626 C 232.570 362.771,233.200 363.049,233.200 363.245 C 233.200 363.440,233.470 363.600,233.800 363.600 C 234.130 363.600,234.400 363.766,234.400 363.968 C 234.400 364.171,234.970 364.462,235.667 364.615 C 236.363 364.768,237.305 365.239,237.759 365.662 C 238.213 366.085,238.993 366.534,239.492 366.659 C 239.991 366.784,240.400 367.047,240.400 367.243 C 240.400 367.440,240.670 367.600,241.000 367.600 C 241.330 367.600,241.600 367.760,241.600 367.955 C 241.600 368.151,242.230 368.429,243.000 368.574 C 243.770 368.718,244.400 369.008,244.400 369.218 C 244.400 369.428,244.670 369.600,245.000 369.600 C 245.330 369.600,245.600 369.780,245.600 370.000 C 245.600 370.220,245.915 370.401,246.300 370.402 C 246.685 370.403,247.810 370.942,248.800 371.600 C 249.790 372.258,250.825 372.797,251.100 372.798 C 251.375 372.799,251.600 372.980,251.600 373.200 C 251.600 373.420,251.960 373.600,252.400 373.600 C 252.840 373.600,253.200 373.766,253.200 373.968 C 253.200 374.171,253.740 374.455,254.400 374.600 C 255.060 374.745,255.600 375.029,255.600 375.232 C 255.600 375.434,255.960 375.600,256.400 375.600 C 256.840 375.600,257.200 375.780,257.200 376.000 C 257.200 376.220,257.457 376.400,257.771 376.400 C 258.086 376.400,258.584 376.625,258.879 376.900 C 259.737 377.701,261.868 378.800,262.562 378.800 C 262.913 378.800,263.200 378.980,263.200 379.200 C 263.200 379.420,263.470 379.600,263.800 379.600 C 264.130 379.600,264.400 379.772,264.400 379.982 C 264.400 380.192,265.030 380.482,265.800 380.626 C 266.570 380.771,267.200 381.021,267.200 381.182 C 267.200 381.342,267.875 381.817,268.700 382.237 C 269.525 382.657,270.290 383.099,270.400 383.221 C 270.722 383.577,273.480 384.800,273.960 384.800 C 274.202 384.800,274.400 384.980,274.400 385.200 C 274.400 385.420,274.670 385.600,275.000 385.600 C 275.330 385.600,275.600 385.760,275.600 385.955 C 275.600 386.151,276.230 386.429,277.000 386.574 C 277.770 386.718,278.400 387.008,278.400 387.218 C 278.400 387.428,278.670 387.600,279.000 387.600 C 279.330 387.600,279.600 387.760,279.600 387.955 C 279.600 388.151,280.230 388.429,281.000 388.574 C 281.770 388.718,282.400 388.964,282.400 389.120 C 282.400 389.534,284.513 390.404,286.170 390.673 C 286.957 390.800,287.600 391.061,287.600 391.252 C 287.600 391.444,288.014 391.600,288.520 391.600 C 289.026 391.600,289.623 391.783,289.847 392.007 C 290.071 392.231,291.733 392.528,293.541 392.667 C 295.348 392.807,296.922 393.074,297.037 393.260 C 297.312 393.705,306.800 393.704,306.800 393.259 C 306.800 393.071,308.187 392.800,309.882 392.657 C 311.577 392.514,313.143 392.217,313.362 391.998 C 313.581 391.779,314.174 391.600,314.680 391.600 C 315.186 391.600,315.600 391.428,315.600 391.218 C 315.600 391.008,316.230 390.718,317.000 390.574 C 317.770 390.429,318.400 390.151,318.400 389.955 C 318.400 389.760,318.670 389.600,319.000 389.600 C 319.330 389.600,319.600 389.434,319.600 389.232 C 319.600 389.029,320.149 388.743,320.819 388.596 C 321.490 388.449,322.253 387.984,322.515 387.564 C 322.778 387.144,323.240 386.800,323.544 386.800 C 324.261 386.800,330.800 380.144,330.800 379.413 C 330.800 379.106,331.160 378.740,331.600 378.600 C 332.040 378.460,332.400 378.020,332.400 377.622 C 332.400 377.224,332.670 376.674,333.000 376.400 C 333.330 376.126,333.600 375.654,333.600 375.351 C 333.600 375.048,333.772 374.800,333.982 374.800 C 334.192 374.800,334.482 374.170,334.626 373.400 C 334.771 372.630,335.049 372.000,335.245 372.000 C 335.440 372.000,335.600 371.676,335.600 371.280 C 335.600 370.884,335.785 370.375,336.011 370.149 C 336.236 369.924,336.532 368.808,336.666 367.669 C 336.801 366.531,337.066 365.600,337.256 365.600 C 337.445 365.600,337.600 364.880,337.600 364.000 C 337.600 363.120,337.780 362.400,338.000 362.400 C 338.254 362.400,338.400 359.408,338.400 354.224 C 338.400 349.204,338.246 345.952,338.000 345.800 C 337.780 345.664,337.600 344.674,337.600 343.600 C 337.600 342.526,337.437 341.546,337.237 341.423 C 337.038 341.300,336.746 339.489,336.590 337.399 C 336.433 335.310,336.146 333.600,335.952 333.600 C 335.759 333.600,335.600 332.700,335.600 331.600 C 335.600 330.500,335.439 329.600,335.243 329.600 C 335.047 329.600,334.757 327.800,334.600 325.600 C 334.443 323.400,334.153 321.600,333.957 321.600 C 333.761 321.600,333.600 320.700,333.600 319.600 C 333.600 318.500,333.441 317.600,333.248 317.600 C 333.054 317.600,332.767 315.890,332.610 313.801 C 332.454 311.711,332.162 309.900,331.963 309.777 C 331.763 309.654,331.600 308.663,331.600 307.576 C 331.600 306.489,331.441 305.600,331.248 305.600 C 331.054 305.600,330.767 303.890,330.610 301.801 C 330.454 299.711,330.162 297.900,329.963 297.777 C 329.763 297.654,329.600 296.764,329.600 295.800 C 329.600 294.836,329.442 293.949,329.248 293.830 C 329.054 293.710,328.768 291.900,328.611 289.807 C 328.454 287.714,328.162 285.900,327.963 285.777 C 327.763 285.654,327.600 284.764,327.600 283.800 C 327.600 282.836,327.439 281.948,327.243 281.826 C 327.046 281.705,326.757 279.983,326.600 278.000 C 326.443 276.017,326.154 274.295,325.957 274.174 C 325.761 274.052,325.600 273.164,325.600 272.200 C 325.600 271.236,325.437 270.346,325.237 270.223 C 325.038 270.100,324.746 268.286,324.589 266.193 C 324.432 264.100,324.146 262.290,323.952 262.170 C 323.758 262.051,323.600 261.153,323.600 260.176 C 323.600 259.199,323.420 258.400,323.200 258.400 C 322.318 258.400,322.879 256.659,324.146 255.467 C 324.886 254.770,327.337 252.490,329.592 250.400 C 331.848 248.310,333.897 246.366,334.146 246.081 C 334.396 245.795,334.834 245.345,335.119 245.081 C 335.405 244.816,335.855 244.366,336.119 244.081 C 336.384 243.795,336.834 243.345,337.119 243.081 C 337.405 242.816,337.855 242.366,338.119 242.081 C 338.384 241.795,338.834 241.345,339.119 241.081 C 339.405 240.816,339.855 240.366,340.119 240.081 C 340.384 239.795,340.834 239.345,341.119 239.081 C 341.405 238.816,341.855 238.366,342.119 238.081 C 342.384 237.795,342.834 237.345,343.119 237.081 C 343.405 236.816,343.855 236.366,344.119 236.081 C 344.888 235.250,345.294 234.882,347.187 233.297 C 348.169 232.474,352.686 228.110,357.225 223.600 C 361.763 219.090,366.706 214.320,368.210 213.000 C 372.170 209.525,390.063 191.583,390.963 190.185 C 391.383 189.533,391.968 188.856,392.263 188.680 C 392.558 188.504,392.800 188.021,392.800 187.607 C 392.800 187.193,393.160 186.740,393.600 186.600 C 394.040 186.460,394.400 186.020,394.400 185.622 C 394.400 185.224,394.670 184.674,395.000 184.400 C 395.330 184.126,395.600 183.654,395.600 183.351 C 395.600 183.048,395.766 182.800,395.968 182.800 C 396.171 182.800,396.455 182.260,396.600 181.600 C 396.745 180.940,397.029 180.400,397.232 180.400 C 397.434 180.400,397.600 179.950,397.600 179.400 C 397.600 178.850,397.764 178.400,397.965 178.400 C 398.166 178.400,398.458 177.635,398.614 176.700 C 398.770 175.765,399.101 174.872,399.349 174.715 C 400.182 174.187,399.957 153.671,399.102 152.200 C 398.719 151.540,398.404 150.595,398.402 150.100 C 398.401 149.605,398.220 149.200,398.000 149.200 C 397.780 149.200,397.600 148.840,397.600 148.400 C 397.600 147.960,397.440 147.600,397.243 147.600 C 397.047 147.600,396.784 147.191,396.659 146.692 C 396.534 146.193,396.064 145.390,395.615 144.909 C 395.167 144.427,394.800 143.869,394.800 143.667 C 394.800 142.548,386.540 134.400,385.406 134.400 C 385.120 134.400,384.782 134.130,384.655 133.800 C 384.529 133.470,384.142 133.200,383.796 133.200 C 383.450 133.200,382.773 132.833,382.291 132.385 C 381.810 131.936,381.007 131.466,380.508 131.341 C 380.009 131.216,379.600 130.953,379.600 130.757 C 379.600 130.560,379.251 130.400,378.824 130.400 C 378.397 130.400,377.945 130.234,377.819 130.031 C 377.694 129.828,377.014 129.535,376.309 129.380 C 375.099 129.114,374.745 128.975,372.814 128.005 C 372.381 127.788,371.031 127.493,369.814 127.350 C 368.596 127.207,367.600 126.935,367.600 126.745 C 367.600 126.555,366.891 126.400,366.024 126.400 C 365.157 126.400,364.345 126.234,364.220 126.032 C 364.094 125.829,362.190 125.536,359.987 125.380 C 357.785 125.223,355.886 124.939,355.768 124.748 C 355.650 124.557,354.663 124.400,353.576 124.400 C 352.489 124.400,351.600 124.240,351.600 124.044 C 351.600 123.848,349.620 123.558,347.200 123.400 C 344.780 123.242,342.800 122.952,342.800 122.756 C 342.800 122.560,341.911 122.400,340.824 122.400 C 339.737 122.400,338.748 122.240,338.627 122.043 C 338.506 121.847,336.604 121.558,334.400 121.400 C 332.196 121.242,330.294 120.953,330.173 120.757 C 330.052 120.560,329.074 120.400,328.000 120.400 C 326.926 120.400,325.948 120.240,325.827 120.043 C 325.706 119.847,323.804 119.558,321.600 119.400 C 319.396 119.242,317.494 118.953,317.373 118.757 C 317.252 118.560,316.173 118.400,314.976 118.400 C 313.779 118.400,312.800 118.237,312.800 118.038 C 312.800 117.840,310.910 117.548,308.600 117.391 C 306.290 117.233,304.400 116.946,304.400 116.752 C 304.400 116.558,303.511 116.400,302.424 116.400 C 301.337 116.400,300.349 116.242,300.230 116.048 C 300.110 115.855,298.120 115.567,295.806 115.410 C 293.493 115.252,291.600 114.977,291.600 114.799 C 291.600 114.620,290.655 114.373,289.500 114.249 C 280.875 113.326,278.800 113.033,278.800 112.737 C 278.800 112.552,278.337 112.400,277.771 112.400 C 276.717 112.400,275.600 111.592,275.600 110.829 C 275.600 110.593,275.428 110.400,275.218 110.400 C 275.008 110.400,274.718 109.770,274.574 109.000 C 274.429 108.230,274.151 107.600,273.955 107.600 C 273.760 107.600,273.600 107.330,273.600 107.000 C 273.600 106.670,273.428 106.400,273.218 106.400 C 273.008 106.400,272.718 105.770,272.574 105.000 C 272.429 104.230,272.151 103.600,271.955 103.600 C 271.760 103.600,271.600 103.330,271.600 103.000 C 271.600 102.670,271.428 102.400,271.218 102.400 C 271.008 102.400,270.718 101.770,270.574 101.000 C 270.429 100.230,270.151 99.600,269.955 99.600 C 269.760 99.600,269.600 99.330,269.600 99.000 C 269.600 98.670,269.428 98.400,269.218 98.400 C 269.008 98.400,268.718 97.770,268.574 97.000 C 268.429 96.230,268.151 95.600,267.955 95.600 C 267.760 95.600,267.600 95.330,267.600 95.000 C 267.600 94.670,267.428 94.400,267.218 94.400 C 267.008 94.400,266.718 93.770,266.574 93.000 C 266.429 92.230,266.151 91.600,265.955 91.600 C 265.760 91.600,265.600 91.330,265.600 91.000 C 265.600 90.670,265.428 90.400,265.218 90.400 C 265.008 90.400,264.718 89.770,264.574 89.000 C 264.429 88.230,264.151 87.600,263.955 87.600 C 263.760 87.600,263.600 87.330,263.600 87.000 C 263.600 86.670,263.428 86.400,263.218 86.400 C 263.008 86.400,262.718 85.770,262.574 85.000 C 262.429 84.230,262.151 83.600,261.955 83.600 C 261.760 83.600,261.600 83.330,261.600 83.000 C 261.600 82.670,261.428 82.400,261.218 82.400 C 261.008 82.400,260.718 81.770,260.574 81.000 C 260.429 80.230,260.151 79.600,259.955 79.600 C 259.760 79.600,259.600 79.330,259.600 79.000 C 259.600 78.670,259.428 78.400,259.218 78.400 C 259.008 78.400,258.718 77.770,258.574 77.000 C 258.429 76.230,258.151 75.600,257.955 75.600 C 257.760 75.600,257.600 75.330,257.600 75.000 C 257.600 74.670,257.428 74.400,257.218 74.400 C 257.008 74.400,256.718 73.770,256.574 73.000 C 256.429 72.230,256.151 71.600,255.955 71.600 C 255.760 71.600,255.600 71.330,255.600 71.000 C 255.600 70.670,255.428 70.400,255.218 70.400 C 255.008 70.400,254.718 69.770,254.574 69.000 C 254.429 68.230,254.151 67.600,253.955 67.600 C 253.760 67.600,253.600 67.330,253.600 67.000 C 253.600 66.670,253.428 66.400,253.218 66.400 C 253.008 66.400,252.718 65.770,252.574 65.000 C 252.429 64.230,252.151 63.600,251.955 63.600 C 251.760 63.600,251.600 63.330,251.600 63.000 C 251.600 62.670,251.428 62.400,251.218 62.400 C 251.008 62.400,250.718 61.770,250.574 61.000 C 250.429 60.230,250.151 59.600,249.955 59.600 C 249.760 59.600,249.600 59.330,249.600 59.000 C 249.600 58.670,249.428 58.400,249.218 58.400 C 249.008 58.400,248.718 57.770,248.574 57.000 C 248.429 56.230,248.151 55.600,247.955 55.600 C 247.760 55.600,247.600 55.330,247.600 55.000 C 247.600 54.670,247.428 54.400,247.218 54.400 C 247.008 54.400,246.718 53.770,246.574 53.000 C 246.429 52.230,246.151 51.600,245.955 51.600 C 245.760 51.600,245.600 51.330,245.600 51.000 C 245.600 50.670,245.428 50.400,245.218 50.400 C 245.008 50.400,244.718 49.770,244.574 49.000 C 244.429 48.230,244.151 47.600,243.955 47.600 C 243.760 47.600,243.600 47.330,243.600 47.000 C 243.600 46.670,243.428 46.400,243.218 46.400 C 243.008 46.400,242.718 45.770,242.574 45.000 C 242.429 44.230,242.151 43.600,241.955 43.600 C 241.760 43.600,241.600 43.330,241.600 43.000 C 241.600 42.670,241.428 42.400,241.218 42.400 C 241.008 42.400,240.718 41.770,240.574 41.000 C 240.429 40.230,240.151 39.600,239.955 39.600 C 239.760 39.600,239.600 39.330,239.600 39.000 C 239.600 38.670,239.428 38.400,239.218 38.400 C 239.008 38.400,238.718 37.770,238.574 37.000 C 238.429 36.230,238.151 35.600,237.955 35.600 C 237.760 35.600,237.600 35.330,237.600 35.000 C 237.600 34.670,237.440 34.400,237.243 34.400 C 237.047 34.400,236.764 33.905,236.614 33.300 C 236.464 32.695,236.015 31.840,235.616 31.400 C 235.218 30.960,234.756 30.150,234.589 29.600 C 234.422 29.050,233.977 28.330,233.600 28.000 C 233.223 27.670,232.789 27.004,232.637 26.520 C 232.484 26.037,232.008 25.530,231.580 25.394 C 231.151 25.257,230.800 24.874,230.800 24.541 C 230.800 23.984,223.537 16.400,223.003 16.400 C 222.776 16.400,222.217 15.978,221.015 14.900 C 220.708 14.625,220.264 14.400,220.029 14.400 C 219.793 14.400,219.600 14.220,219.600 14.000 C 219.600 13.780,219.343 13.600,219.029 13.600 C 218.714 13.600,218.219 13.368,217.929 13.085 C 217.142 12.318,214.598 11.200,213.640 11.200 C 213.178 11.200,212.800 11.020,212.800 10.800 C 212.800 10.580,212.350 10.400,211.800 10.400 C 211.250 10.400,210.800 10.234,210.800 10.032 C 210.800 9.829,209.585 9.551,208.100 9.413 C 206.615 9.275,205.087 8.991,204.705 8.781 C 203.844 8.309,196.525 8.273,196.237 8.740 M205.905 32.952 C 212.257 36.171,212.088 35.882,238.039 87.789 C 250.361 112.435,260.717 132.810,261.052 133.067 C 261.388 133.323,262.593 133.652,263.731 133.797 C 266.195 134.110,272.521 135.072,275.600 135.602 C 276.810 135.810,279.690 136.259,282.000 136.600 C 284.310 136.941,287.190 137.391,288.400 137.600 C 289.610 137.809,292.490 138.259,294.800 138.600 C 297.110 138.941,299.990 139.391,301.200 139.600 C 302.410 139.809,305.290 140.259,307.600 140.600 C 309.910 140.941,312.790 141.391,314.000 141.600 C 315.210 141.809,318.090 142.261,320.400 142.603 C 325.789 143.403,328.463 143.813,333.400 144.595 C 338.298 145.371,340.378 145.695,348.800 146.992 C 366.098 149.657,369.345 150.659,373.598 154.637 C 381.209 161.756,378.953 170.443,366.344 182.570 C 363.845 184.973,358.920 189.729,355.400 193.139 C 351.880 196.549,346.480 201.774,343.400 204.749 C 340.320 207.723,335.094 212.777,331.787 215.979 C 328.480 219.180,320.984 226.437,315.130 232.104 C 309.276 237.771,303.105 243.704,301.417 245.287 L 298.348 248.166 298.612 250.183 C 298.757 251.292,299.231 254.270,299.665 256.800 C 300.100 259.330,300.616 262.390,300.812 263.600 C 301.009 264.810,301.453 267.510,301.800 269.600 C 302.147 271.690,302.591 274.390,302.788 275.600 C 303.538 280.199,304.841 287.932,305.418 291.200 C 305.748 293.070,306.192 295.590,306.405 296.800 C 306.781 298.937,308.085 306.742,308.812 311.200 C 309.147 313.258,309.949 318.108,310.796 323.200 C 310.997 324.410,311.903 329.720,312.808 335.000 C 315.708 351.923,315.930 354.065,315.205 358.141 C 313.260 369.071,305.729 372.935,294.078 368.979 C 292.408 368.412,283.125 363.906,282.200 363.214 C 281.980 363.049,280.000 361.964,277.800 360.803 C 275.600 359.642,272.090 357.790,270.000 356.687 C 267.910 355.584,265.300 354.192,264.200 353.593 C 263.100 352.995,260.400 351.556,258.200 350.395 C 256.000 349.234,253.030 347.648,251.600 346.870 C 250.170 346.092,247.830 344.842,246.400 344.091 C 240.276 340.876,235.264 338.217,233.400 337.194 C 229.249 334.915,226.828 333.627,221.000 330.598 C 217.700 328.883,214.820 327.352,214.600 327.195 C 214.380 327.038,212.220 325.869,209.800 324.598 C 207.380 323.327,204.265 321.674,202.878 320.924 L 200.355 319.561 195.878 321.929 C 193.415 323.231,190.140 324.973,188.600 325.800 C 187.060 326.627,184.315 328.091,182.500 329.052 C 178.097 331.384,172.659 334.280,170.200 335.601 C 169.100 336.192,166.040 337.812,163.400 339.201 C 160.760 340.589,157.790 342.169,156.800 342.711 C 153.782 344.363,150.394 346.182,146.200 348.403 C 144.000 349.568,141.030 351.147,139.600 351.912 C 136.482 353.581,132.024 355.945,126.600 358.805 C 124.400 359.965,122.420 361.043,122.200 361.201 C 120.962 362.088,108.297 368.448,106.677 368.996 C 91.838 374.021,82.639 365.024,85.583 348.367 C 85.794 347.175,86.252 344.490,86.601 342.400 C 86.950 340.310,87.407 337.610,87.617 336.400 C 88.430 331.699,88.893 328.914,89.214 326.800 C 89.570 324.448,90.933 316.427,91.592 312.800 C 91.812 311.590,92.364 308.350,92.818 305.600 C 93.272 302.850,93.918 298.980,94.253 297.000 C 94.588 295.020,95.017 292.410,95.206 291.200 C 95.395 289.990,96.473 283.600,97.600 277.000 C 98.727 270.400,99.802 264.010,99.988 262.800 C 100.583 258.931,101.233 255.052,101.598 253.200 C 102.594 248.138,103.054 249.126,96.920 243.153 C 93.897 240.209,88.718 235.158,85.412 231.930 C 82.105 228.701,79.019 225.731,78.554 225.330 C 78.089 224.928,72.689 219.744,66.554 213.808 C 28.432 176.923,26.945 175.400,24.775 171.000 C 19.233 159.762,25.724 151.229,41.800 148.617 C 44.000 148.260,46.790 147.799,48.000 147.594 C 49.210 147.388,52.090 146.941,54.400 146.600 C 56.710 146.259,59.590 145.809,60.800 145.600 C 62.010 145.391,64.890 144.941,67.200 144.600 C 69.510 144.259,72.390 143.809,73.600 143.600 C 74.810 143.391,77.600 142.950,79.800 142.620 C 83.438 142.074,93.365 140.544,99.400 139.600 C 105.435 138.656,115.362 137.126,119.000 136.580 C 121.200 136.250,123.990 135.808,125.200 135.597 C 126.410 135.387,129.380 134.929,131.800 134.580 C 137.205 133.802,139.456 133.256,140.009 132.590 C 140.242 132.309,150.462 112.036,162.721 87.539 C 174.979 63.043,185.689 41.981,186.520 40.736 C 191.856 32.738,199.458 29.685,205.905 32.952 " stroke="none" fill="#542c1b" fill-rule="evenodd"></path><path id="path1" d="M196.930 32.576 C 193.157 33.755,190.070 36.372,186.990 41.000 C 185.512 43.221,143.080 127.036,140.859 132.122 C 140.782 132.300,141.389 132.165,142.208 131.822 C 143.027 131.480,144.717 131.200,145.962 131.200 L 148.226 131.200 151.272 126.100 C 152.947 123.295,154.808 120.100,155.407 119.000 C 156.007 117.900,156.995 116.100,157.603 115.000 C 160.520 109.726,161.989 106.884,175.697 80.000 C 181.689 68.248,185.693 60.514,187.292 57.600 C 187.836 56.610,188.964 54.540,189.800 53.000 C 196.508 40.638,201.091 38.895,198.214 49.800 C 196.450 56.486,193.363 65.757,191.427 70.182 C 191.134 70.852,190.666 72.030,190.387 72.800 C 190.108 73.570,189.656 74.740,189.381 75.400 C 189.107 76.060,188.301 78.040,187.589 79.800 C 186.878 81.560,185.780 84.130,185.148 85.510 C 184.517 86.891,184.000 88.115,184.000 88.232 C 184.000 88.434,183.709 89.096,181.200 94.600 C 180.598 95.920,179.704 97.900,179.212 99.000 C 176.578 104.896,169.176 119.926,166.794 124.214 C 166.066 125.526,165.168 127.140,164.800 127.800 C 164.432 128.460,163.535 130.073,162.806 131.385 C 162.078 132.696,160.850 134.756,160.079 135.962 C 158.632 138.224,158.441 139.435,159.150 141.853 C 159.750 143.902,157.606 150.800,156.369 150.800 C 156.213 150.800,155.974 151.091,155.837 151.448 C 155.540 152.223,155.680 152.196,162.400 150.203 C 166.722 148.921,174.262 146.979,181.800 145.207 C 184.660 144.534,187.720 143.809,188.600 143.594 C 190.270 143.188,197.295 141.739,200.400 141.161 C 216.425 138.177,228.994 136.338,241.341 135.170 C 246.883 134.646,246.103 134.134,249.291 140.396 C 252.183 146.080,251.539 145.640,258.400 146.607 C 260.930 146.963,263.900 147.417,265.000 147.617 C 266.100 147.816,268.890 148.256,271.200 148.594 C 273.510 148.932,276.390 149.380,277.600 149.590 C 278.810 149.800,281.690 150.250,284.000 150.590 C 286.310 150.930,289.190 151.380,290.400 151.590 C 291.610 151.800,294.490 152.252,296.800 152.594 C 299.110 152.935,302.080 153.384,303.400 153.591 C 304.720 153.798,307.690 154.254,310.000 154.604 C 312.310 154.954,315.100 155.401,316.200 155.598 C 317.300 155.795,320.180 156.244,322.600 156.594 C 325.020 156.945,327.900 157.394,329.000 157.591 C 330.100 157.788,332.980 158.238,335.400 158.591 C 337.820 158.944,340.790 159.400,342.000 159.605 C 343.210 159.809,346.180 160.262,348.600 160.611 C 351.020 160.959,353.755 161.415,354.677 161.622 C 355.600 161.830,356.842 162.000,357.439 162.000 C 358.846 162.000,361.600 164.804,361.600 166.237 C 361.600 168.080,360.475 169.458,353.315 176.386 L 346.200 183.271 344.349 183.060 C 342.426 182.841,334.823 182.335,321.800 181.558 C 304.708 180.539,265.465 181.622,248.200 183.590 C 246.440 183.790,242.210 184.243,238.800 184.595 C 235.390 184.947,231.610 185.399,230.400 185.600 C 229.190 185.800,227.300 186.054,226.200 186.164 C 225.100 186.274,222.445 186.642,220.300 186.982 C 208.899 188.789,205.455 189.360,202.400 189.953 C 201.410 190.145,199.070 190.592,197.200 190.947 C 195.330 191.302,191.730 192.031,189.200 192.568 C 186.670 193.105,182.800 193.926,180.600 194.392 C 178.400 194.858,176.060 195.409,175.400 195.616 C 174.740 195.823,170.960 196.794,167.000 197.775 C 160.404 199.408,157.899 200.071,151.600 201.850 C 149.379 202.478,141.048 204.974,139.200 205.567 C 138.650 205.743,137.120 206.204,135.800 206.590 C 134.480 206.977,133.040 207.441,132.600 207.621 C 132.160 207.802,129.550 208.692,126.800 209.598 C 122.028 211.171,117.119 212.890,115.400 213.590 C 114.960 213.769,113.700 214.218,112.600 214.589 C 111.500 214.959,110.240 215.410,109.800 215.591 C 109.360 215.771,108.370 216.144,107.600 216.420 C 106.830 216.695,105.660 217.139,105.000 217.406 C 104.340 217.673,102.990 218.207,102.000 218.594 C 101.010 218.980,99.840 219.449,99.400 219.637 C 98.960 219.824,97.636 220.348,96.457 220.800 L 94.314 221.622 92.457 219.933 C 91.436 219.004,85.560 213.363,79.400 207.397 C 73.240 201.432,66.625 195.048,64.700 193.212 C 60.530 189.234,60.602 189.602,63.700 188.088 C 65.979 186.974,67.231 186.394,73.400 183.600 C 75.769 182.527,79.277 180.930,82.600 179.411 C 83.920 178.808,85.810 177.993,86.800 177.600 C 87.790 177.208,89.820 176.327,91.310 175.643 C 92.801 174.959,94.117 174.400,94.236 174.400 C 94.354 174.400,95.435 173.950,96.637 173.400 C 97.840 172.850,98.926 172.400,99.051 172.400 C 99.177 172.400,99.936 172.112,100.740 171.759 C 101.543 171.407,102.560 170.966,103.000 170.779 C 104.104 170.312,113.340 166.688,116.200 165.600 C 116.640 165.433,117.720 165.016,118.600 164.675 C 122.126 163.306,126.738 161.622,129.200 160.803 C 130.630 160.327,132.070 159.835,132.400 159.710 C 132.730 159.585,135.520 158.632,138.600 157.593 C 144.258 155.683,144.994 155.195,142.873 154.761 C 142.231 154.630,140.877 154.121,139.864 153.631 C 138.851 153.141,137.813 152.868,137.557 153.026 C 137.106 153.305,133.473 154.091,129.400 154.791 C 125.924 155.389,119.491 156.424,117.000 156.786 C 115.680 156.978,112.620 157.431,110.200 157.793 C 107.780 158.155,104.450 158.602,102.800 158.786 C 101.150 158.971,97.190 159.418,94.000 159.780 C 60.948 163.528,36.200 163.364,36.200 159.397 C 36.200 158.731,36.626 158.524,38.800 158.134 C 40.230 157.878,42.480 157.464,43.800 157.214 C 48.498 156.325,57.167 154.927,68.600 153.215 C 69.920 153.017,72.890 152.565,75.200 152.209 C 77.510 151.854,80.480 151.404,81.800 151.209 C 83.120 151.015,86.090 150.565,88.400 150.209 C 90.710 149.854,93.680 149.400,95.000 149.200 C 97.153 148.874,100.620 148.306,107.200 147.200 C 109.994 146.731,116.113 145.621,118.200 145.206 C 119.080 145.031,121.240 144.608,123.000 144.267 C 124.760 143.925,127.806 143.231,129.769 142.723 L 133.339 141.800 133.929 140.000 C 134.673 137.731,136.610 134.864,137.738 134.364 C 138.543 134.007,138.534 133.994,137.600 134.162 C 137.050 134.261,135.700 134.451,134.600 134.582 C 133.500 134.714,131.700 134.993,130.600 135.202 C 129.500 135.411,126.620 135.862,124.200 136.205 C 121.780 136.547,118.900 136.991,117.800 137.192 C 116.700 137.392,113.820 137.844,111.400 138.195 C 108.980 138.547,106.100 138.995,105.000 139.193 C 100.614 139.979,94.947 140.812,94.028 140.806 C 93.494 140.803,92.504 140.967,91.828 141.172 C 91.153 141.376,88.440 141.837,85.800 142.195 C 83.160 142.554,80.100 143.015,79.000 143.220 C 77.900 143.424,75.020 143.872,72.600 144.214 C 70.180 144.557,67.300 145.007,66.200 145.214 C 65.100 145.422,62.220 145.870,59.800 146.209 C 57.380 146.549,54.590 146.989,53.600 147.187 C 52.610 147.385,49.640 147.840,47.000 148.199 C 44.360 148.558,41.647 149.020,40.972 149.226 C 40.296 149.432,39.383 149.600,38.943 149.600 C 35.972 149.600,28.455 153.293,26.322 155.800 C 20.618 162.504,23.084 171.251,33.478 181.190 C 35.855 183.463,42.300 189.684,47.800 195.015 C 53.300 200.346,59.150 206.003,60.800 207.586 C 62.450 209.170,65.966 212.566,68.612 215.133 C 73.517 219.890,92.300 238.043,99.154 244.650 L 102.940 248.299 102.245 252.450 C 101.864 254.732,101.391 257.410,101.194 258.400 C 100.998 259.390,100.545 262.090,100.187 264.400 C 99.829 266.710,99.382 269.320,99.194 270.200 C 99.005 271.080,98.557 273.780,98.198 276.200 C 97.839 278.620,97.392 281.230,97.206 282.000 C 97.019 282.770,96.571 285.470,96.209 288.000 C 95.848 290.530,95.399 293.230,95.212 294.000 C 95.025 294.770,94.576 297.380,94.215 299.800 C 93.854 302.220,93.397 305.010,93.198 306.000 C 93.000 306.990,92.545 309.690,92.187 312.000 C 91.829 314.310,91.382 316.920,91.194 317.800 C 91.005 318.680,90.557 321.380,90.198 323.800 C 89.839 326.220,89.394 328.830,89.208 329.600 C 89.023 330.370,88.576 332.980,88.215 335.400 C 87.854 337.820,87.393 340.610,87.190 341.600 C 83.337 360.406,87.229 370.000,98.709 370.000 C 103.899 370.000,106.733 368.954,118.200 362.807 C 124.685 359.330,127.478 357.842,130.800 356.092 C 132.670 355.107,135.100 353.807,136.200 353.204 C 137.300 352.600,140.360 350.980,143.000 349.603 C 145.640 348.226,147.980 346.970,148.200 346.812 C 148.420 346.654,150.940 345.298,153.800 343.799 C 156.660 342.299,160.080 340.499,161.400 339.798 C 162.720 339.098,165.600 337.572,167.800 336.409 C 170.000 335.245,172.700 333.798,173.800 333.193 C 174.900 332.588,177.510 331.195,179.600 330.098 C 181.690 329.001,184.210 327.654,185.200 327.105 C 186.190 326.556,188.890 325.115,191.200 323.904 C 193.510 322.692,196.439 321.138,197.709 320.450 C 200.578 318.897,199.944 318.816,204.630 321.330 C 211.446 324.988,215.260 327.022,219.400 329.207 C 221.600 330.369,224.300 331.807,225.400 332.404 C 226.500 333.001,228.975 334.324,230.900 335.344 C 239.597 339.955,250.449 345.745,255.000 348.202 C 256.320 348.915,259.380 350.535,261.800 351.803 C 264.220 353.070,267.100 354.599,268.200 355.200 C 269.300 355.802,271.640 357.060,273.400 357.996 C 275.160 358.933,277.860 360.375,279.400 361.201 C 293.577 368.805,296.658 370.000,302.091 370.000 C 309.039 370.000,312.866 366.544,314.662 358.647 C 315.481 355.048,315.171 351.126,313.191 340.000 C 312.507 336.161,311.543 330.501,311.215 328.400 C 311.026 327.190,310.578 324.490,310.221 322.400 C 309.440 317.842,309.034 315.433,308.200 310.400 C 307.334 305.176,306.937 302.823,306.177 298.400 C 305.818 296.310,305.376 293.700,305.194 292.600 C 305.013 291.500,304.563 288.800,304.195 286.600 C 303.827 284.400,303.379 281.700,303.201 280.600 C 303.022 279.500,302.582 276.890,302.223 274.800 C 301.487 270.517,301.107 268.267,300.198 262.800 C 299.851 260.710,299.413 258.100,299.226 257.000 C 299.038 255.900,298.654 253.489,298.372 251.643 L 297.859 248.286 304.041 242.243 C 307.440 238.919,315.077 231.522,321.011 225.805 C 326.945 220.087,334.770 212.517,338.400 208.982 C 342.030 205.446,347.153 200.494,349.783 197.977 C 364.483 183.912,373.086 175.110,374.489 172.701 C 380.532 162.326,376.381 153.268,364.200 150.248 C 362.660 149.867,360.847 149.385,360.172 149.177 C 359.496 148.970,358.442 148.800,357.829 148.800 C 356.831 148.800,353.144 148.239,347.400 147.212 C 346.300 147.015,343.330 146.564,340.800 146.209 C 338.270 145.854,335.300 145.399,334.200 145.199 C 333.100 144.998,330.220 144.547,327.800 144.195 C 325.380 143.844,322.500 143.392,321.400 143.192 C 320.300 142.991,317.420 142.547,315.000 142.205 C 312.580 141.862,309.700 141.412,308.600 141.205 C 307.500 140.997,304.620 140.547,302.200 140.205 C 299.780 139.862,296.900 139.415,295.800 139.210 C 294.700 139.005,291.820 138.557,289.400 138.214 C 286.980 137.872,284.100 137.422,283.000 137.214 C 281.900 137.007,279.020 136.557,276.600 136.214 C 274.180 135.872,271.300 135.423,270.200 135.217 C 269.100 135.011,266.606 134.621,264.658 134.350 C 262.709 134.079,260.889 133.632,260.613 133.355 C 260.336 133.079,250.018 112.698,237.683 88.064 C 214.951 42.664,214.027 40.886,211.871 38.406 C 207.223 33.059,201.957 31.004,196.930 32.576 M287.417 239.582 L 283.450 243.565 285.581 256.282 C 286.754 263.277,287.860 269.900,288.040 271.000 C 289.087 277.409,289.757 281.401,291.600 292.200 C 292.726 298.800,293.803 305.190,293.993 306.400 C 294.182 307.610,294.612 310.220,294.948 312.200 C 301.697 352.019,301.657 351.730,300.567 353.394 C 298.724 356.207,297.866 355.950,283.600 348.295 C 279.750 346.229,274.620 343.490,272.200 342.208 C 269.780 340.927,265.280 338.533,262.200 336.889 C 259.120 335.246,255.070 333.088,253.200 332.095 C 251.330 331.102,248.900 329.799,247.800 329.201 C 246.700 328.603,243.820 327.073,241.400 325.801 C 236.834 323.400,233.504 321.624,229.400 319.402 C 226.368 317.761,222.168 315.524,216.800 312.692 C 214.490 311.474,210.800 309.513,208.600 308.335 C 206.400 307.157,203.610 305.685,202.400 305.064 L 200.200 303.936 193.000 307.798 C 189.040 309.923,183.730 312.751,181.200 314.083 C 178.670 315.415,175.700 317.003,174.600 317.611 C 173.500 318.220,168.370 320.961,163.200 323.703 C 158.030 326.445,152.450 329.411,150.800 330.296 C 149.150 331.180,145.010 333.389,141.600 335.204 C 133.756 339.380,131.994 340.320,119.838 346.813 C 110.001 352.068,109.869 352.124,109.238 351.307 C 108.887 350.852,108.097 349.831,107.482 349.039 C 106.406 347.652,103.787 345.988,102.716 346.011 C 102.432 346.017,102.961 346.422,103.890 346.911 C 113.671 352.055,110.500 364.831,99.451 364.791 C 87.422 364.748,85.259 349.190,96.805 345.762 C 98.438 345.277,99.150 345.226,99.682 345.558 C 100.071 345.801,100.797 345.986,101.295 345.968 C 102.114 345.940,102.094 345.898,101.085 345.530 C 100.312 345.248,100.035 344.921,100.180 344.462 C 100.368 343.871,103.924 323.167,104.794 317.600 C 104.983 316.390,105.431 313.690,105.789 311.600 C 106.148 309.510,106.596 306.810,106.784 305.600 C 107.336 302.062,108.042 297.924,108.389 296.200 C 108.566 295.320,109.226 291.404,109.855 287.498 L 111.000 280.397 116.400 278.158 C 119.370 276.927,122.160 275.761,122.600 275.566 C 123.838 275.017,132.877 271.550,134.000 271.193 C 134.550 271.018,137.070 270.128,139.600 269.216 C 147.346 266.425,165.560 260.544,170.600 259.207 C 171.260 259.032,175.670 257.804,180.400 256.479 C 189.725 253.866,208.416 249.194,214.400 247.980 C 215.390 247.779,218.360 247.152,221.000 246.587 C 230.613 244.530,239.325 242.907,252.000 240.812 C 259.415 239.586,261.358 239.285,266.200 238.611 C 274.506 237.454,276.212 237.234,281.600 236.621 C 284.570 236.283,287.540 235.942,288.200 235.863 C 291.593 235.458,291.611 235.373,287.417 239.582 " stroke="none" fill="#f8bf0d" fill-rule="evenodd"></path><path id="path2" d="M195.918 43.900 C 193.046 46.961,189.285 53.905,170.406 91.000 C 163.899 103.786,159.665 111.947,159.199 112.600 C 159.043 112.820,157.970 114.771,156.817 116.936 C 150.238 129.280,148.637 131.449,146.062 131.508 C 140.491 131.635,134.000 136.565,134.000 140.668 C 134.000 141.992,133.785 142.070,123.800 144.401 C 119.940 145.302,106.036 147.750,95.600 149.365 C 93.290 149.723,90.320 150.186,89.000 150.394 C 87.680 150.603,84.710 151.055,82.400 151.400 C 80.090 151.745,77.120 152.195,75.800 152.400 C 74.480 152.605,71.510 153.055,69.200 153.400 C 60.650 154.675,45.633 157.094,43.200 157.587 C 42.210 157.788,40.185 158.176,38.700 158.449 C 35.791 158.985,35.505 159.259,36.900 160.168 C 43.649 164.569,96.323 161.049,133.095 153.739 L 138.390 152.686 140.862 153.796 C 147.341 156.703,155.040 154.008,157.952 147.812 C 158.956 145.676,159.233 141.157,158.450 139.693 C 158.108 139.055,158.300 138.460,159.460 136.553 C 165.853 126.043,176.686 104.696,182.070 92.000 C 182.956 89.910,184.214 87.039,184.865 85.620 C 195.508 62.415,202.183 37.222,195.918 43.900 " stroke="none" fill="#fcfbf9" fill-rule="evenodd"></path><path id="path3" d="M197.800 31.840 C 189.487 33.892,189.878 33.271,162.591 87.800 C 143.259 126.431,140.014 132.676,139.025 133.151 C 138.394 133.454,136.421 133.898,134.639 134.138 C 132.858 134.378,131.825 134.640,132.343 134.721 C 133.723 134.935,138.401 134.045,139.582 133.344 C 140.357 132.885,145.857 122.219,162.600 88.705 C 174.700 64.486,185.620 43.114,186.867 41.212 C 194.136 30.126,203.736 29.048,211.871 38.406 C 214.024 40.883,214.931 42.628,237.860 88.414 C 251.960 116.570,260.723 133.639,261.136 133.754 C 262.918 134.251,267.514 134.869,268.400 134.731 C 268.950 134.645,267.709 134.348,265.642 134.071 C 263.576 133.793,261.596 133.411,261.242 133.222 C 260.889 133.032,250.484 112.651,238.120 87.930 C 225.756 63.210,214.880 41.853,213.951 40.469 C 209.669 34.093,203.035 30.548,197.800 31.840 M127.040 135.242 C 123.686 135.731,123.656 136.136,127.000 135.786 C 129.948 135.477,132.368 134.828,130.400 134.874 C 129.850 134.887,128.338 135.052,127.040 135.242 M270.400 135.167 C 271.918 135.692,280.977 136.942,281.629 136.716 C 281.943 136.606,281.030 136.386,279.600 136.227 C 278.170 136.067,276.370 135.787,275.600 135.604 C 273.511 135.108,269.177 134.743,270.400 135.167 M120.000 136.400 L 118.600 136.695 120.200 136.700 C 121.080 136.703,122.340 136.568,123.000 136.400 L 124.200 136.095 122.800 136.100 C 122.030 136.103,120.770 136.238,120.000 136.400 M116.200 136.993 C 115.980 137.064,113.572 137.448,110.849 137.844 C 108.126 138.241,106.134 138.645,106.422 138.741 C 106.980 138.927,115.387 137.752,117.400 137.207 C 118.491 136.911,118.509 136.881,117.600 136.872 C 117.050 136.867,116.420 136.922,116.200 136.993 M283.200 137.167 C 284.718 137.692,293.777 138.942,294.429 138.716 C 294.743 138.606,293.830 138.386,292.400 138.227 C 290.970 138.067,289.170 137.787,288.400 137.604 C 286.311 137.108,281.977 136.743,283.200 137.167 M102.000 139.196 C 101.010 139.355,98.490 139.727,96.400 140.022 C 94.310 140.318,92.960 140.636,93.400 140.731 C 94.223 140.907,102.462 139.786,104.600 139.207 C 106.189 138.776,104.653 138.770,102.000 139.196 M295.800 139.155 C 296.240 139.341,297.860 139.601,299.400 139.733 C 301.031 139.874,301.783 139.839,301.200 139.649 C 299.795 139.193,294.805 138.736,295.800 139.155 M303.400 140.400 C 304.060 140.568,305.320 140.706,306.200 140.707 L 307.800 140.708 306.200 140.377 C 305.320 140.195,304.060 140.057,303.400 140.070 L 302.200 140.095 303.400 140.400 M87.400 141.418 C 85.640 141.717,83.210 142.142,82.000 142.362 L 79.800 142.763 82.000 142.619 C 86.877 142.301,94.918 140.831,91.600 140.864 C 91.050 140.870,89.160 141.119,87.400 141.418 M308.600 141.155 C 309.040 141.341,310.660 141.601,312.200 141.733 C 313.831 141.874,314.583 141.839,314.000 141.649 C 312.595 141.193,307.605 140.736,308.600 141.155 M316.200 142.400 C 316.860 142.568,318.120 142.706,319.000 142.707 L 320.600 142.708 319.000 142.377 C 318.120 142.195,316.860 142.057,316.200 142.070 L 315.000 142.095 316.200 142.400 M76.000 143.208 C 75.010 143.373,72.580 143.739,70.600 144.021 C 68.620 144.302,67.257 144.619,67.571 144.724 C 68.204 144.935,77.219 143.702,78.800 143.188 L 79.800 142.863 78.800 142.885 C 78.250 142.897,76.990 143.042,76.000 143.208 M321.800 143.177 C 322.460 143.369,325.070 143.818,327.600 144.176 C 330.130 144.534,333.100 144.989,334.200 145.189 C 339.136 146.083,344.300 146.809,345.400 146.762 C 346.660 146.708,345.451 146.456,339.800 145.592 C 336.430 145.078,330.227 144.101,327.200 143.609 C 323.617 143.026,320.389 142.768,321.800 143.177 M63.200 145.208 C 62.210 145.373,59.780 145.739,57.800 146.021 C 55.820 146.302,54.457 146.619,54.771 146.724 C 55.404 146.935,64.419 145.702,66.000 145.188 L 67.000 144.863 66.000 144.885 C 65.450 144.897,64.190 145.042,63.200 145.208 M50.400 147.208 C 49.410 147.373,46.980 147.739,45.000 148.021 C 43.020 148.302,41.657 148.619,41.971 148.724 C 42.604 148.935,51.619 147.702,53.200 147.188 L 54.200 146.863 53.200 146.885 C 52.650 146.897,51.390 147.042,50.400 147.208 M347.800 147.210 C 349.779 147.753,356.912 148.817,358.200 148.762 C 359.540 148.705,358.832 148.559,351.783 147.438 C 347.530 146.763,345.805 146.664,347.800 147.210 M38.800 149.081 C 25.776 151.320,19.730 160.769,24.775 171.000 C 26.945 175.400,28.432 176.923,66.554 213.808 C 72.689 219.744,78.089 224.928,78.554 225.330 C 79.019 225.731,82.105 228.701,85.412 231.930 C 88.718 235.158,93.892 240.204,96.910 243.143 L 102.396 248.485 102.158 250.143 C 102.027 251.054,101.772 252.430,101.592 253.200 C 101.102 255.292,100.674 259.034,100.956 258.766 C 101.091 258.637,101.589 256.225,102.061 253.406 L 102.920 248.280 99.144 244.640 C 92.350 238.091,73.531 219.904,68.612 215.133 C 65.966 212.566,62.450 209.170,60.800 207.586 C 59.150 206.003,53.300 200.346,47.800 195.015 C 42.300 189.684,35.855 183.463,33.478 181.190 C 23.084 171.251,20.618 162.504,26.322 155.800 C 28.538 153.196,35.956 149.613,39.171 149.594 C 39.737 149.591,40.470 149.413,40.800 149.200 C 41.457 148.775,40.804 148.736,38.800 149.081 M360.200 149.138 C 361.370 149.652,366.494 150.839,366.691 150.642 C 366.912 150.422,363.044 149.320,361.000 149.021 C 359.911 148.862,359.656 148.899,360.200 149.138 M367.200 150.964 C 367.200 151.055,368.055 151.534,369.100 152.029 C 377.520 156.018,379.587 163.947,374.489 172.701 C 373.086 175.110,364.483 183.912,349.783 197.977 C 347.153 200.494,342.030 205.446,338.400 208.982 C 334.770 212.517,326.946 220.087,321.013 225.805 C 315.080 231.522,307.458 238.900,304.074 242.200 L 297.923 248.200 298.187 250.600 C 298.332 251.920,298.610 253.720,298.806 254.600 C 299.001 255.480,299.289 257.100,299.447 258.200 C 299.605 259.300,299.806 259.891,299.894 259.513 C 299.982 259.136,299.784 257.336,299.455 255.513 C 299.127 253.691,298.743 251.292,298.603 250.183 L 298.348 248.166 301.417 245.287 C 303.105 243.704,309.276 237.771,315.130 232.104 C 320.984 226.437,328.480 219.180,331.787 215.979 C 335.094 212.777,340.320 207.723,343.400 204.749 C 346.480 201.774,351.880 196.549,355.400 193.139 C 358.920 189.729,363.845 184.973,366.344 182.570 C 378.953 170.443,381.209 161.756,373.598 154.637 C 371.573 152.743,367.200 150.233,367.200 150.964 M288.200 235.863 C 287.540 235.942,284.570 236.283,281.600 236.621 C 276.212 237.234,274.506 237.454,266.200 238.611 C 261.358 239.285,259.415 239.586,252.000 240.812 C 239.325 242.907,230.613 244.530,221.000 246.587 C 218.360 247.152,215.390 247.779,214.400 247.980 C 208.416 249.194,189.725 253.866,180.400 256.479 C 175.670 257.804,171.260 259.032,170.600 259.207 C 165.560 260.544,147.346 266.425,139.600 269.216 C 137.070 270.128,134.550 271.018,134.000 271.193 C 132.877 271.550,123.838 275.017,122.600 275.566 C 122.160 275.761,119.370 276.927,116.400 278.158 L 111.000 280.397 109.855 287.498 C 109.226 291.404,108.566 295.320,108.389 296.200 C 108.042 297.924,107.336 302.062,106.784 305.600 C 106.596 306.810,106.148 309.510,105.789 311.600 C 105.431 313.690,104.983 316.390,104.794 317.600 C 103.908 323.267,100.366 343.876,100.174 344.483 C 100.002 345.024,100.396 345.293,102.079 345.784 C 105.075 346.657,106.572 347.681,108.231 349.990 C 110.009 352.465,108.452 352.895,119.964 346.746 C 132.032 340.300,133.799 339.357,141.600 335.204 C 145.010 333.389,149.150 331.180,150.800 330.296 C 152.450 329.411,158.030 326.445,163.200 323.703 C 168.370 320.961,173.500 318.220,174.600 317.611 C 175.700 317.003,178.670 315.415,181.200 314.083 C 183.730 312.751,189.040 309.923,193.000 307.798 L 200.200 303.936 202.400 305.064 C 203.610 305.685,206.400 307.157,208.600 308.335 C 210.800 309.513,214.490 311.474,216.800 312.692 C 222.168 315.524,226.368 317.761,229.400 319.402 C 233.504 321.624,236.834 323.400,241.400 325.801 C 243.820 327.073,246.700 328.603,247.800 329.201 C 248.900 329.799,251.330 331.102,253.200 332.095 C 255.070 333.088,259.120 335.246,262.200 336.889 C 265.280 338.533,269.780 340.927,272.200 342.208 C 274.620 343.490,279.750 346.229,283.600 348.295 C 297.866 355.950,298.724 356.207,300.567 353.394 C 301.657 351.730,301.697 352.019,294.948 312.200 C 294.612 310.220,294.182 307.610,293.993 306.400 C 293.803 305.190,292.726 298.800,291.600 292.200 C 289.757 281.401,289.087 277.409,288.040 271.000 C 287.860 269.900,286.754 263.277,285.581 256.282 L 283.450 243.565 287.417 239.582 C 291.611 235.373,291.593 235.458,288.200 235.863 M100.232 261.400 C 100.065 262.720,99.779 264.430,99.596 265.200 C 99.093 267.318,98.737 271.314,99.185 269.800 C 99.827 267.637,100.901 260.618,100.716 259.800 C 100.617 259.360,100.399 260.080,100.232 261.400 M300.225 262.400 C 300.453 264.815,301.090 268.617,301.634 270.800 C 302.100 272.671,301.748 268.813,301.141 265.400 C 300.396 261.209,299.986 259.865,300.225 262.400 M97.662 276.578 C 97.173 279.619,96.861 282.194,96.967 282.301 C 97.197 282.530,97.321 281.939,98.215 276.343 C 98.589 274.002,98.818 271.853,98.723 271.568 C 98.628 271.283,98.150 273.537,97.662 276.578 M302.265 274.800 C 302.394 276.230,302.657 277.817,302.849 278.326 C 303.042 278.835,303.213 279.915,303.228 280.726 C 303.244 281.537,303.425 282.560,303.631 283.000 C 304.056 283.907,303.833 281.388,303.135 277.400 C 302.373 273.046,302.010 271.962,302.265 274.800 M96.236 285.000 C 96.077 286.320,95.796 288.030,95.612 288.800 C 95.101 290.941,94.764 294.742,95.170 293.800 C 95.668 292.641,96.951 283.850,96.720 283.173 C 96.613 282.858,96.395 283.680,96.236 285.000 M304.259 286.580 C 304.381 288.110,304.643 289.786,304.840 290.306 C 305.038 290.827,305.213 291.915,305.228 292.726 C 305.244 293.537,305.411 294.560,305.600 295.000 C 306.411 296.888,305.999 293.630,304.436 285.800 C 304.057 283.900,304.048 283.939,304.259 286.580 M94.257 297.000 C 94.086 298.320,93.793 300.030,93.605 300.800 C 93.116 302.808,92.666 306.642,92.951 306.370 C 93.329 306.011,94.869 296.480,94.710 295.486 C 94.632 294.999,94.428 295.680,94.257 297.000 M306.237 298.200 C 306.360 299.520,306.618 301.320,306.811 302.200 C 307.003 303.080,307.273 304.671,307.410 305.737 C 307.548 306.802,307.763 307.570,307.889 307.444 C 308.131 307.202,306.931 299.047,306.352 297.000 C 306.118 296.172,306.082 296.543,306.237 298.200 M92.232 309.000 C 92.065 310.320,91.779 312.030,91.596 312.800 C 91.093 314.918,90.737 318.914,91.185 317.400 C 91.827 315.237,92.901 308.218,92.716 307.400 C 92.617 306.960,92.399 307.680,92.232 309.000 M308.225 310.000 C 308.453 312.415,309.090 316.217,309.634 318.400 C 310.100 320.271,309.748 316.413,309.141 313.000 C 308.396 308.809,307.986 307.465,308.225 310.000 M90.052 321.600 C 88.966 328.414,88.795 329.728,88.974 329.907 C 89.197 330.130,89.325 329.516,90.215 323.943 C 90.589 321.602,90.813 319.442,90.713 319.143 C 90.612 318.845,90.315 319.950,90.052 321.600 M198.000 320.261 C 197.010 320.812,194.130 322.352,191.600 323.684 C 189.070 325.016,186.190 326.555,185.200 327.105 C 184.210 327.654,181.690 329.001,179.600 330.098 C 177.510 331.195,174.900 332.588,173.800 333.194 C 172.700 333.799,171.198 334.601,170.463 334.977 C 169.727 335.352,169.223 335.756,169.342 335.875 C 169.461 335.994,170.152 335.733,170.879 335.295 C 171.606 334.856,173.775 333.666,175.700 332.649 C 182.253 329.187,185.796 327.306,188.600 325.800 C 190.140 324.973,193.415 323.231,195.878 321.929 L 200.355 319.561 202.878 320.924 C 204.265 321.674,207.380 323.327,209.800 324.598 C 212.220 325.869,214.380 327.038,214.600 327.195 C 214.820 327.352,217.700 328.883,221.000 330.598 C 226.828 333.627,229.249 334.915,233.400 337.194 C 235.264 338.217,240.276 340.876,246.400 344.091 C 247.830 344.842,250.170 346.092,251.600 346.870 C 253.030 347.648,256.000 349.234,258.200 350.395 C 260.400 351.556,263.100 352.995,264.200 353.593 C 265.300 354.192,267.910 355.584,270.000 356.687 C 272.090 357.790,275.600 359.642,277.800 360.803 C 280.000 361.964,281.980 363.049,282.200 363.214 C 284.686 365.075,296.287 370.050,297.952 369.968 C 298.308 369.951,298.060 369.766,297.400 369.556 C 293.055 368.178,291.681 367.603,287.200 365.287 C 284.450 363.866,280.940 362.027,279.400 361.201 C 277.860 360.375,275.160 358.933,273.400 357.996 C 271.640 357.060,269.300 355.802,268.200 355.200 C 267.100 354.599,264.220 353.070,261.800 351.803 C 259.380 350.535,256.320 348.915,255.000 348.202 C 250.408 345.723,240.752 340.571,231.000 335.398 C 229.020 334.348,226.500 333.001,225.400 332.404 C 224.300 331.807,221.600 330.369,219.400 329.207 C 215.260 327.022,211.446 324.988,204.630 321.330 C 200.088 318.893,200.375 318.939,198.000 320.261 M310.024 320.833 C 310.037 321.365,310.218 322.700,310.426 323.800 C 310.633 324.900,310.974 326.880,311.183 328.200 C 311.392 329.520,311.856 332.310,312.214 334.400 C 312.572 336.490,313.033 339.267,313.237 340.571 C 313.598 342.876,314.000 343.992,314.000 342.689 C 314.000 342.335,313.360 338.300,312.578 333.723 C 311.796 329.145,310.982 324.241,310.769 322.824 C 310.370 320.168,309.982 319.132,310.024 320.833 M88.257 332.600 C 88.086 333.920,87.796 335.630,87.612 336.400 C 87.149 338.340,86.700 342.234,86.971 341.963 C 87.336 341.597,88.864 332.046,88.710 331.086 C 88.632 330.599,88.428 331.280,88.257 332.600 M166.400 337.073 C 164.478 338.184,162.058 339.476,153.800 343.801 C 150.940 345.299,148.420 346.654,148.200 346.812 C 147.980 346.970,145.640 348.226,143.000 349.603 C 140.360 350.980,137.300 352.600,136.200 353.204 C 135.100 353.807,132.670 355.107,130.800 356.092 C 127.564 357.797,125.115 359.102,118.100 362.861 C 109.899 367.256,106.259 368.908,103.600 369.440 C 102.830 369.594,102.428 369.799,102.706 369.895 C 103.931 370.320,118.668 363.749,122.200 361.203 C 122.420 361.044,124.400 359.965,126.600 358.805 C 132.024 355.945,136.482 353.581,139.600 351.912 C 141.030 351.147,144.000 349.568,146.200 348.403 C 150.394 346.182,153.782 344.363,156.800 342.711 C 157.790 342.169,160.760 340.596,163.400 339.215 C 166.040 337.835,168.371 336.546,168.580 336.353 C 169.323 335.663,168.198 336.035,166.400 337.073 M86.236 344.600 C 86.062 345.920,85.763 347.720,85.570 348.600 C 84.644 352.826,85.405 360.515,87.066 363.728 C 88.585 366.664,93.439 370.450,94.930 369.861 C 95.188 369.759,94.860 369.554,94.200 369.406 C 87.630 367.936,84.306 358.875,86.229 347.679 C 86.575 345.665,86.789 343.609,86.705 343.109 C 86.620 342.609,86.409 343.280,86.236 344.600 M314.252 346.000 C 314.373 347.430,314.631 349.320,314.826 350.200 C 316.594 358.184,312.426 367.909,306.600 369.393 C 305.940 369.561,305.622 369.780,305.894 369.881 C 306.165 369.981,307.215 369.649,308.226 369.144 C 313.907 366.307,316.593 358.545,315.158 349.107 C 314.463 344.535,313.990 342.914,314.252 346.000 M97.100 370.423 C 98.035 370.607,99.565 370.607,100.500 370.423 C 101.957 370.136,101.715 370.088,98.800 370.088 C 95.885 370.088,95.643 370.136,97.100 370.423 M300.141 370.443 C 301.053 370.657,302.441 370.659,303.541 370.447 C 305.249 370.119,305.124 370.089,302.000 370.085 C 299.108 370.081,298.830 370.134,300.141 370.443 " stroke="none" fill="#cb8c1b" fill-rule="evenodd"></path><path id="path4" d="M195.464 43.982 C 194.659 44.873,194.000 45.724,194.000 45.873 C 194.000 46.022,194.644 45.392,195.431 44.472 C 196.803 42.869,198.105 42.340,198.537 43.210 C 198.649 43.436,198.694 43.391,198.639 43.110 C 198.412 41.967,196.912 42.379,195.464 43.982 M198.449 47.000 C 198.416 47.440,198.296 48.250,198.183 48.800 L 197.977 49.800 198.406 48.819 C 198.642 48.279,198.761 47.469,198.672 47.019 C 198.513 46.221,198.507 46.221,198.449 47.000 M197.246 52.067 C 197.221 52.434,197.096 53.064,196.970 53.467 C 196.752 54.162,196.763 54.163,197.197 53.487 C 197.448 53.096,197.573 52.466,197.473 52.087 C 197.311 51.468,197.288 51.466,197.246 52.067 M193.244 64.444 C 192.998 65.151,192.866 65.800,192.952 65.885 C 193.038 65.971,193.309 65.462,193.556 64.756 C 193.802 64.049,193.934 63.400,193.848 63.315 C 193.762 63.229,193.491 63.738,193.244 64.444 M192.044 67.644 C 191.798 68.351,191.666 69.000,191.752 69.085 C 191.838 69.171,192.109 68.662,192.356 67.956 C 192.602 67.249,192.734 66.600,192.648 66.515 C 192.562 66.429,192.291 66.938,192.044 67.644 M189.267 74.780 C 189.033 75.451,188.927 76.000,189.031 76.000 C 189.301 76.000,190.056 73.922,189.857 73.724 C 189.767 73.633,189.501 74.108,189.267 74.780 M172.000 87.200 C 171.551 88.080,171.274 88.800,171.384 88.800 C 171.494 88.800,171.951 88.080,172.400 87.200 C 172.849 86.320,173.126 85.600,173.016 85.600 C 172.906 85.600,172.449 86.320,172.000 87.200 M183.267 89.180 C 183.033 89.851,182.927 90.400,183.031 90.400 C 183.301 90.400,184.056 88.322,183.857 88.124 C 183.767 88.033,183.501 88.508,183.267 89.180 M163.980 102.839 C 163.520 103.740,163.213 104.546,163.297 104.630 C 163.381 104.714,163.841 103.976,164.319 102.991 C 165.409 100.747,165.115 100.615,163.980 102.839 M175.681 105.809 C 175.202 106.794,174.894 107.600,174.997 107.600 C 175.268 107.600,176.884 104.351,176.703 104.170 C 176.619 104.086,176.159 104.824,175.681 105.809 M151.800 125.200 C 151.459 125.860,151.269 126.400,151.379 126.400 C 151.489 126.400,151.859 125.860,152.200 125.200 C 152.541 124.540,152.731 124.000,152.621 124.000 C 152.511 124.000,152.141 124.540,151.800 125.200 M150.553 127.300 C 149.176 129.636,149.086 129.835,149.787 129.000 C 150.600 128.032,151.300 126.800,151.038 126.800 C 150.933 126.800,150.715 127.025,150.553 127.300 M142.821 131.579 C 142.446 131.816,142.870 131.865,144.021 131.718 C 144.999 131.592,145.875 131.425,145.967 131.345 C 146.342 131.019,143.355 131.240,142.821 131.579 M240.400 135.208 C 227.686 136.539,215.421 138.364,200.400 141.161 C 197.295 141.739,190.270 143.188,188.600 143.594 C 187.720 143.809,184.660 144.534,181.800 145.207 C 174.262 146.979,166.722 148.921,162.400 150.203 C 155.811 152.157,155.405 152.241,155.820 151.558 C 156.007 151.251,155.502 151.498,154.698 152.106 C 152.266 153.947,149.665 154.863,146.727 154.914 C 145.256 154.939,144.086 155.120,144.127 155.316 C 144.167 155.512,141.680 156.529,138.600 157.577 C 135.520 158.626,132.730 159.585,132.400 159.710 C 132.070 159.835,130.630 160.327,129.200 160.803 C 126.738 161.622,122.126 163.306,118.600 164.675 C 117.720 165.016,116.640 165.433,116.200 165.600 C 113.340 166.688,104.104 170.312,103.000 170.779 C 102.560 170.966,101.543 171.407,100.740 171.759 C 99.936 172.112,99.177 172.400,99.051 172.400 C 98.926 172.400,97.840 172.850,96.637 173.400 C 95.435 173.950,94.354 174.400,94.236 174.400 C 94.117 174.400,92.801 174.959,91.310 175.643 C 89.820 176.327,87.790 177.208,86.800 177.600 C 85.810 177.992,83.830 178.849,82.400 179.504 C 80.970 180.158,78.900 181.102,77.800 181.600 C 76.700 182.098,74.720 182.998,73.400 183.599 C 72.080 184.200,69.920 185.181,68.600 185.778 C 64.098 187.816,61.200 189.309,61.200 189.592 C 61.200 189.747,62.775 191.376,64.700 193.212 C 66.625 195.048,73.240 201.432,79.400 207.397 C 85.560 213.363,91.436 219.004,92.457 219.933 L 94.314 221.622 96.457 220.800 C 97.636 220.348,98.960 219.824,99.400 219.637 C 99.840 219.449,101.010 218.980,102.000 218.594 C 102.990 218.207,104.340 217.673,105.000 217.406 C 105.660 217.139,106.830 216.695,107.600 216.420 C 108.370 216.144,109.360 215.771,109.800 215.591 C 110.240 215.410,111.500 214.959,112.600 214.589 C 113.700 214.218,114.960 213.769,115.400 213.590 C 117.119 212.890,122.028 211.171,126.800 209.598 C 129.550 208.692,132.160 207.802,132.600 207.621 C 133.040 207.441,134.480 206.977,135.800 206.590 C 137.120 206.204,138.650 205.743,139.200 205.567 C 141.048 204.974,149.379 202.478,151.600 201.850 C 157.899 200.071,160.404 199.408,167.000 197.775 C 170.960 196.794,174.740 195.823,175.400 195.616 C 176.060 195.409,178.400 194.858,180.600 194.392 C 182.800 193.926,186.670 193.105,189.200 192.568 C 191.730 192.031,195.330 191.302,197.200 190.947 C 199.070 190.592,201.410 190.145,202.400 189.953 C 205.455 189.360,208.899 188.789,220.300 186.982 C 222.445 186.642,225.100 186.274,226.200 186.164 C 227.300 186.054,229.190 185.800,230.400 185.600 C 231.610 185.399,235.390 184.947,238.800 184.595 C 242.210 184.243,246.440 183.790,248.200 183.590 C 265.465 181.622,304.708 180.539,321.800 181.558 C 334.823 182.335,342.426 182.841,344.349 183.060 L 346.200 183.271 353.315 176.386 C 360.475 169.458,361.600 168.080,361.600 166.237 C 361.600 164.804,358.846 162.000,357.439 162.000 C 356.842 162.000,355.600 161.830,354.677 161.622 C 353.755 161.415,351.020 160.959,348.600 160.611 C 346.180 160.262,343.210 159.809,342.000 159.605 C 340.790 159.400,337.820 158.944,335.400 158.591 C 332.980 158.238,330.100 157.788,329.000 157.591 C 327.900 157.394,325.020 156.945,322.600 156.594 C 320.180 156.244,317.300 155.795,316.200 155.598 C 315.100 155.401,312.310 154.954,310.000 154.604 C 307.690 154.254,304.720 153.798,303.400 153.591 C 302.080 153.384,299.110 152.935,296.800 152.594 C 294.490 152.252,291.610 151.800,290.400 151.590 C 289.190 151.380,286.310 150.930,284.000 150.590 C 281.690 150.250,278.810 149.800,277.600 149.590 C 276.390 149.380,273.510 148.932,271.200 148.594 C 268.890 148.256,266.100 147.816,265.000 147.617 C 263.900 147.417,260.930 146.963,258.400 146.607 C 251.531 145.639,252.201 146.106,249.186 140.197 L 246.534 135.000 244.967 134.947 C 244.105 134.918,242.050 135.035,240.400 135.208 M158.917 143.200 C 158.917 144.912,158.985 145.156,159.224 144.300 C 159.393 143.695,159.393 142.705,159.224 142.100 C 158.985 141.244,158.917 141.488,158.917 143.200 M126.200 143.600 C 125.696 143.817,125.622 143.944,126.000 143.944 C 126.330 143.944,126.960 143.789,127.400 143.600 C 127.904 143.383,127.978 143.256,127.600 143.256 C 127.270 143.256,126.640 143.411,126.200 143.600 M120.200 144.810 C 119.666 145.047,119.998 145.086,121.200 144.927 C 122.190 144.796,123.075 144.624,123.167 144.544 C 123.514 144.243,120.964 144.472,120.200 144.810 M116.200 145.600 C 115.181 146.038,116.232 146.038,117.600 145.600 C 118.404 145.343,118.443 145.277,117.800 145.268 C 117.360 145.262,116.640 145.411,116.200 145.600 M111.600 146.400 C 110.243 146.686,110.237 146.695,111.400 146.707 C 112.060 146.715,113.050 146.576,113.600 146.400 C 114.912 145.980,113.596 145.980,111.600 146.400 M104.800 147.600 C 103.456 148.031,104.908 148.031,106.600 147.600 C 107.678 147.326,107.698 147.294,106.800 147.287 C 106.250 147.283,105.350 147.424,104.800 147.600 M98.900 148.676 C 99.285 148.776,99.915 148.776,100.300 148.676 C 100.685 148.575,100.370 148.493,99.600 148.493 C 98.830 148.493,98.515 148.575,98.900 148.676 M157.014 149.435 C 156.641 150.004,156.405 150.538,156.489 150.622 C 156.573 150.707,156.958 150.241,157.344 149.588 C 158.206 148.128,157.948 148.009,157.014 149.435 M92.400 149.600 C 91.056 150.031,92.508 150.031,94.200 149.600 C 95.278 149.326,95.298 149.294,94.400 149.287 C 93.850 149.283,92.950 149.424,92.400 149.600 M86.100 150.676 C 86.485 150.776,87.115 150.776,87.500 150.676 C 87.885 150.575,87.570 150.493,86.800 150.493 C 86.030 150.493,85.715 150.575,86.100 150.676 M79.200 151.620 C 78.526 151.849,78.851 151.884,80.200 151.728 C 81.300 151.601,82.275 151.431,82.367 151.349 C 82.682 151.068,80.199 151.280,79.200 151.620 M72.900 152.676 C 73.285 152.776,73.915 152.776,74.300 152.676 C 74.685 152.575,74.370 152.493,73.600 152.493 C 72.830 152.493,72.515 152.575,72.900 152.676 M135.800 153.200 C 134.693 153.482,134.677 153.509,135.600 153.547 C 136.150 153.569,136.870 153.413,137.200 153.200 C 137.881 152.760,137.529 152.760,135.800 153.200 M66.000 153.620 C 65.326 153.849,65.651 153.884,67.000 153.728 C 68.100 153.601,69.075 153.431,69.167 153.349 C 69.482 153.068,66.999 153.280,66.000 153.620 M130.000 154.400 C 129.208 154.654,129.167 154.720,129.800 154.720 C 130.240 154.720,131.050 154.576,131.600 154.400 C 132.392 154.146,132.433 154.080,131.800 154.080 C 131.360 154.080,130.550 154.224,130.000 154.400 M59.505 154.683 C 60.002 154.779,60.722 154.775,61.105 154.675 C 61.487 154.575,61.080 154.496,60.200 154.501 C 59.320 154.505,59.007 154.587,59.505 154.683 M125.200 155.200 C 123.833 155.488,123.828 155.495,125.000 155.519 C 125.660 155.533,126.560 155.389,127.000 155.200 C 127.962 154.787,127.164 154.787,125.200 155.200 M53.200 155.600 C 51.856 156.031,53.308 156.031,55.000 155.600 C 56.078 155.326,56.098 155.294,55.200 155.287 C 54.650 155.283,53.750 155.424,53.200 155.600 M117.800 156.400 C 116.722 156.674,116.702 156.706,117.600 156.713 C 118.150 156.717,119.050 156.576,119.600 156.400 C 120.944 155.969,119.492 155.969,117.800 156.400 M47.300 156.676 C 47.685 156.776,48.315 156.776,48.700 156.676 C 49.085 156.575,48.770 156.493,48.000 156.493 C 47.230 156.493,46.915 156.575,47.300 156.676 M112.200 157.200 L 110.600 157.486 112.000 157.515 C 112.770 157.531,113.760 157.389,114.200 157.200 C 115.143 156.795,114.462 156.795,112.200 157.200 M41.800 157.600 C 40.781 158.038,41.832 158.038,43.200 157.600 C 44.004 157.343,44.043 157.277,43.400 157.268 C 42.960 157.262,42.240 157.411,41.800 157.600 M103.400 158.400 C 102.039 158.644,101.979 158.692,103.000 158.720 C 103.660 158.739,104.920 158.605,105.800 158.423 C 107.893 157.990,105.802 157.970,103.400 158.400 M96.600 159.200 L 94.600 159.474 96.400 159.497 C 97.390 159.510,98.650 159.376,99.200 159.200 C 100.444 158.801,99.506 158.801,96.600 159.200 M85.200 160.400 C 83.575 160.653,83.536 160.682,84.800 160.705 C 85.570 160.719,87.100 160.590,88.200 160.418 C 90.092 160.124,90.113 160.107,88.600 160.114 C 87.720 160.117,86.190 160.246,85.200 160.400 M38.400 161.194 C 38.730 161.411,39.435 161.591,39.967 161.594 C 41.251 161.602,40.925 161.375,39.200 161.058 C 38.215 160.877,37.978 160.918,38.400 161.194 M76.000 161.200 L 73.000 161.456 75.800 161.481 C 77.340 161.494,79.140 161.368,79.800 161.200 C 81.293 160.820,80.453 160.820,76.000 161.200 M69.500 161.882 C 69.995 161.978,70.805 161.978,71.300 161.882 C 71.795 161.787,71.390 161.709,70.400 161.709 C 69.410 161.709,69.005 161.787,69.500 161.882 M46.300 162.293 C 47.235 162.377,48.765 162.377,49.700 162.293 C 50.635 162.209,49.870 162.140,48.000 162.140 C 46.130 162.140,45.365 162.209,46.300 162.293 M58.100 162.294 C 59.145 162.376,60.855 162.376,61.900 162.294 C 62.945 162.212,62.090 162.144,60.000 162.144 C 57.910 162.144,57.055 162.212,58.100 162.294 M53.905 162.683 C 54.402 162.779,55.122 162.775,55.505 162.675 C 55.887 162.575,55.480 162.496,54.600 162.501 C 53.720 162.505,53.407 162.587,53.905 162.683 M96.182 345.945 C 85.199 349.694,87.810 364.749,99.451 364.791 C 104.923 364.811,109.261 361.182,109.865 356.079 C 110.362 351.881,105.206 346.000,101.028 346.000 C 100.489 346.000,99.936 345.820,99.800 345.600 C 99.460 345.050,98.549 345.137,96.182 345.945 " stroke="none" fill="#fcf304" fill-rule="evenodd"></path></g></svg>